<svg data-lt-installed="true" height="907.05103" version="1.1" width="448.44" xmlns="http://www.w3.org/2000/svg" xmlns:cc="http://creativecommons.org/ns#" xmlns:dc="http://purl.org/dc/elements/1.1/" xmlns:rdf="http://www.w3.org/1999/02/22-rdf-syntax-ns#" xmlns:xlink="http://www.w3.org/1999/xlink">
	<defs>
		<filter color-interpolation-filters="sRGB" height="2.4053824" id="filter3934-8-1-9" width="1.7268181" x="-.36340904" y="-.7026912">
			<feGaussianBlur stdDeviation="1.8991999"/>
		</filter>
		<linearGradient gradientTransform="matrix(1.2219087,0,0,1.2219087,-212.94413,34.700333)" gradientUnits="userSpaceOnUse" id="linearGradient5469" x1="296.07889" x2="305.33273" y1="91.848145" y2="100.50741">
			<stop offset="0" stop-color="#1c1518"/>
			<stop offset="1" stop-color="#191715"/>
		</linearGradient>
		<filter color-interpolation-filters="sRGB" height="1.0983196" id="filter1493" width="1.1628636" x="-.081431791" y="-.049159799">
			<feGaussianBlur stdDeviation="0.78543346"/>
		</filter>
		<filter color-interpolation-filters="sRGB" height="1.2006072" id="filter1497" width="1.5141777" x="-.25708884" y="-.10030361">
			<feGaussianBlur stdDeviation="0.78543346"/>
		</filter>
		<filter color-interpolation-filters="sRGB" height="1.1167891" id="filter1501" width="1.1541601" x="-.077080078" y="-.058394574">
			<feGaussianBlur stdDeviation="0.78543346"/>
		</filter>
		<clipPath id="clipPath1696">
			<circle cx="315.6597" cy="944.17999" fill="#895a45" fill-rule="evenodd" r="34.127758"/>
		</clipPath>
		<filter color-interpolation-filters="sRGB" height="1.1110601" id="filter1908" width="1.1864392" x="-.093219571" y="-.055530038">
			<feGaussianBlur stdDeviation="1.0813847"/>
		</filter>
		<filter color-interpolation-filters="sRGB" height="1.3399987" id="filter1932" width="1.366603" x="-.18330148" y="-.16999935">
			<feGaussianBlur stdDeviation="3.2003088"/>
		</filter>
		<filter color-interpolation-filters="sRGB" height="1.4947045" id="filter2136" width="1.4312447" x="-.21562234" y="-.24735227">
			<feGaussianBlur stdDeviation="3.4147931"/>
		</filter>
		<clipPath id="clipPath5589-7-7">
			<path color="#000000" d="m0.45113526 39.688017c-0.2498636 0-0.45113526 0.200756-0.45113526 0.45062v12.912612c0 0.249864 0.20127166 0.451136 0.45113526 0.451136h3.47420684c0.2498635 0 0.4511352-0.201272 0.4511352-0.451136v-12.912612c0-0.249864-0.2012717-0.45062-0.4511352-0.45062z"/>
		</clipPath>
		<filter color-interpolation-filters="sRGB" height="1.0518265" id="filter5465-7-8" width="1.6501182" x="-.32505909" y="-.025913246">
			<feGaussianBlur stdDeviation="0.07139097"/>
		</filter>
		<clipPath id="clipPath5589-9">
			<path color="#000000" d="m0.45113526 39.688017c-0.2498636 0-0.45113526 0.200756-0.45113526 0.45062v12.912612c0 0.249864 0.20127166 0.451136 0.45113526 0.451136h3.47420684c0.2498635 0 0.4511352-0.201272 0.4511352-0.451136v-12.912612c0-0.249864-0.2012717-0.45062-0.4511352-0.45062z"/>
		</clipPath>
		<filter color-interpolation-filters="sRGB" height="1.0518265" id="filter5465-7" width="1.6501182" x="-.32505909" y="-.025913246">
			<feGaussianBlur stdDeviation="0.07139097"/>
		</filter>
		<clipPath id="clipPath5401-3">
			<rect color="#000000" height="7.4167299" ry=".45101735" width="4.3765388" x="-13.8777" y="25.856594"/>
		</clipPath>
		<filter color-interpolation-filters="sRGB" height="1.0518265" id="filter5465" width="1.6501182" x="-.32505909" y="-.025913246">
			<feGaussianBlur stdDeviation="0.07139097"/>
		</filter>
		<clipPath id="clipPath5589-9-9">
			<path color="#000000" d="m0.45113526 39.688017c-0.2498636 0-0.45113526 0.200756-0.45113526 0.45062v12.912612c0 0.249864 0.20127166 0.451136 0.45113526 0.451136h3.47420684c0.2498635 0 0.4511352-0.201272 0.4511352-0.451136v-12.912612c0-0.249864-0.2012717-0.45062-0.4511352-0.45062z"/>
		</clipPath>
		<filter color-interpolation-filters="sRGB" height="1.0518265" id="filter5465-7-1" width="1.6501182" x="-.32505909" y="-.025913246">
			<feGaussianBlur stdDeviation="0.07139097"/>
		</filter>
		<filter color-interpolation-filters="sRGB" height="1.0017792" id="filter11011" width="1.0036863" x="-.0018431405" y="-.00088958914">
			<feGaussianBlur stdDeviation="0.33447266"/>
		</filter>
		<clipPath id="clipPath11030">
			<rect fill="none" height="907.0506" ry="66.0093" stroke="#252624" width="439.41638" x="617.15424" y="97.739677"/>
		</clipPath>
		<filter color-interpolation-filters="sRGB" height="1.0035416" id="filter11042" width="1.0074456" x="-.0037228055" y="-.0017707931">
			<feGaussianBlur stdDeviation="0.66002371"/>
		</filter>
		<clipPath id="clipPath11061">
			<rect fill="none" height="907.0506" ry="66.0093" stroke="#252624" width="439.41638" x="617.15424" y="97.739677"/>
		</clipPath>
		<clipPath id="clipPath1793">
			<path color="#000000" d="m1083.6297 97.739466v907.050734h78.0664c2.72 0 4.0001-1.9199 8-1.9199 4 0 5.28 1.9199 7.9199 1.9199h97.4922c2.72 0 4.0001-1.9199 8-1.9199h40.461c3.9999 0 5.28 1.9199 8 1.9199h191.4765v-907.050734z" fill="none" stroke="#323331" stroke-linecap="round"/>
		</clipPath>
	</defs>
	<metadata>
		<rdf:RDF>
			<cc:Work rdf:about="">
				<dc:format>image/svg+xml</dc:format>
				<dc:type rdf:resource="http://purl.org/dc/dcmitype/StillImage"/>
				<dc:title/>
			</cc:Work>
		</rdf:RDF>
	</metadata>
	<g transform="translate(0,-92.948966)">
		<g transform="matrix(4.7014754 0 0 4.7014754 .06347476 87.4847)">
			<rect color="#000000" fill="#b78d88" height="7.4167299" ry=".45101735" width="4.3765388" x="-.013500771" y="25.856596"/>
			<path clip-path="url(#clipPath5401-3)" color="#000000" d="m-13.330675 26.258962c-0.222752 0-0.402042 0.17929-0.402042 0.402042v5.807914c0 0.222752 0.17929 0.402042 0.402042 0.402042h0.826439v-6.611998z" fill="#f6dbd7" filter="url(#filter5465)" transform="translate(13.8642)"/>
		</g>
		<g transform="matrix(4.8366381,0,0,4.8366381,1.2210233e-6,94.307705)">
			<path color="#000000" d="m0.45113526 39.688017c-0.2498636 0-0.45113526 0.200755-0.45113526 0.45062v12.912611c0 0.249865 0.20127166 0.451136 0.45113526 0.451136h3.47420674c0.2498635 0 0.4511353-0.201271 0.4511353-0.451136v-12.912611c0-0.249865-0.2012718-0.45062-0.4511353-0.45062z" fill="#b78d88"/>
			<path clip-path="url(#clipPath5589-9)" color="#000000" d="m0.547026 40.090161c-0.222752 0-0.402042 0.17929-0.402042 0.402042v12.205679c0 0.222752 0.17929 0.402042 0.402042 0.402042h0.95465l1.548325-6.916516-1.7149182-6.093247z" fill="#f6dbd7" filter="url(#filter5465-7)"/>
		</g>
		<g transform="matrix(4.8366381,0,0,4.8366381,1.2210233e-6,177.68381)">
			<path color="#000000" d="m0.45113526 39.688017c-0.2498636 0-0.45113526 0.200755-0.45113526 0.45062v12.912611c0 0.249865 0.20127166 0.451136 0.45113526 0.451136h3.47420674c0.2498635 0 0.4511353-0.201271 0.4511353-0.451136v-12.912611c0-0.249865-0.2012718-0.45062-0.4511353-0.45062z" fill="#b78d88"/>
			<path clip-path="url(#clipPath5589-7-7)" color="#000000" d="m0.547026 40.090161c-0.222752 0-0.402042 0.17929-0.402042 0.402042v12.205679c0 0.222752 0.17929 0.402042 0.402042 0.402042h1.8243649v-13.009763z" fill="#f6dbd7" filter="url(#filter5465-7-8)"/>
		</g>
		<g transform="matrix(-4.8366381,0,0,-4.8366381,448.44,545.0081)">
			<path color="#000000" d="m0.45113526 39.688017c-0.2498636 0-0.45113526 0.200755-0.45113526 0.45062v12.912611c0 0.249865 0.20127166 0.451136 0.45113526 0.451136h3.47420674c0.2498635 0 0.4511353-0.201271 0.4511353-0.451136v-12.912611c0-0.249865-0.2012718-0.45062-0.4511353-0.45062z" fill="#b78d88"/>
			<path clip-path="url(#clipPath5589-9-9)" color="#000000" d="m0.547026 40.090161c-0.222752 0-0.402042 0.17929-0.402042 0.402042v12.205679c0 0.222752 0.17929 0.402042 0.402042 0.402042h1.8243704v-13.009763z" fill="#f6dbd7" filter="url(#filter5465-7-1)"/>
		</g>
	</g>
	<g transform="translate(0,-92.948966)">
		<g clip-path="url(#clipPath1793)" transform="translate(-1079.118,-4.7905004)">
			<rect fill="#c29b96" fill-rule="evenodd" height="907.0506" ry="66.0093" width="439.41638" x="1083.6298" y="97.739685"/>
			<rect clip-path="url(#clipPath11030)" fill="#f9d5d1" fill-rule="evenodd" filter="url(#filter11011)" height="902.3653" ry="62.750046" transform="translate(466.47552,-7.9710971e-6)" width="435.52533" x="619.09979" y="100.08234"/>
			<path color="#000000" d="m1083.63 170.19663v13.71289h439.416v-13.71289zm0 748.4668v13.66992h439.416v-13.66992z" fill-opacity=".06542059"/>
			<g>
				<rect clip-path="url(#clipPath11061)" color="#000000" fill="#f1f0f1" filter="url(#filter11042)" height="894.54657" ry="58.237717" transform="translate(466.47556)" width="425.50085" x="624.112" y="103.9917"/>
				<rect color="#000000" fill="#fafbfd" height="886.79987" ry="59.122261" width="418.93643" x="1093.8698" y="107.86505"/>
				<path color="#000000" d="m1152.9932 107.86557c-32.7537 0-59.123 26.36736-59.123 59.12109v768.55469c0 32.75373 26.3693 59.12305 59.123 59.12305h6.4199c-32.7537 0-59.123-26.36932-59.123-59.12305v-768.55469c0-32.75373 26.3693-59.12109 59.123-59.12109zm294.2696 0c32.7537 0 59.123 26.36735 59.123 59.12109v768.55469c0 32.75373-26.3693 59.12305-59.123 59.12305h6.4199c32.7537 0 59.123-26.36932 59.123-59.12305v-768.55469c0-32.75374-26.3693-59.12109-59.123-59.12109z" fill="#fefefe"/>
			</g>
		</g>
	</g>
	<g transform="translate(0,-92.948966)">
		<g fill-rule="evenodd" transform="translate(1.0882108e-6,-4.7905017)">
			<circle cx="224.22" cy="944.17999" fill="#aa7971" r="34.127758"/>
			<g clip-path="url(#clipPath1696)" transform="translate(-91.439697)">
				<g fill="#f9d5d1">
					<path d="m269.13351 943.59651s16.96689-2.98067 26.59675 2.98067c9.62986 5.96135 15.5912 28.20173 12.15196 39.20729-3.43923 11.00555-51.58852-20.8647-38.74871-42.18796z" filter="url(#filter1932)"/>
					<path d="m316.59495 905.99421s-2.5221 22.24039 2.29283 28.43101 31.64096-8.48345 34.85091-15.36192c3.20996-6.87847-32.32881-23.15751-37.14374-13.06909z" filter="url(#filter2136)"/>
					<path d="m331.95687 965.8369s3.20995 10.77627 12.38125 14.21551c9.17129 3.43923 22.69895-45.85647 10.77627-46.54432s-21.78183 15.5912-23.15752 32.32881z" filter="url(#filter1908)"/>
				</g>
				<g fill="#fefefd">
					<path d="m275.32413 947.49431s15.36192-5.73206 20.40613 0.68785 0.91713 25.22106-5.96134 28.88958c-6.87847 3.66851-21.32326-22.69896-14.44479-29.57743z" filter="url(#filter1501)"/>
					<path d="m317.97065 907.3699s-1.60498 14.21551 0.45856 15.13264 8.48345-10.77627 5.50278-16.50833-5.96134 1.37569-5.96134 1.37569z" filter="url(#filter1497)"/>
					<path d="m342.50386 940.38656s7.10775-5.04421 12.38125-4.81493c5.27349 0.22928-0.55354 42.48916-9.72483 40.88418-9.17129-1.60497-11.6934-11.46411-11.6934-11.46411z" filter="url(#filter1493)"/>
				</g>
			</g>
			<circle cx="224.22" cy="944.18005" fill="#fafbfd" r="30.375862"/>
		</g>
	</g>
	<g transform="translate(0,-92.948966)">
		<path d="m162.11471 152.35013a7.7448868 7.7448868 0 0 1-15.48977 0 7.7448868 7.7448868 0 1 1 15.48977 0z" enable-background="new" fill="url(#linearGradient5469)" fill-rule="evenodd"/>
		<g>
			<path d="m159.33387 152.58472a5.125296 5.125296 0 0 1-10.25059 0 5.125296 5.125296 0 1 1 10.25059 0z" enable-background="new"/>
			<path d="m158.99777 152.58472a4.78921 4.78921 0 1 1-9.57842 0 4.78921 4.78921 0 1 1 9.57842 0z" enable-background="new" fill="#001a49"/>
			<path d="m157.16837 152.41667a2.8758047 2.8758047 0 0 1-5.75159 0 2.8758047 2.8758047 0 1 1 5.75159 0z" enable-background="new" fill="#232323" opacity=".75" stroke="#555" stroke-width=".57477969"/>
		</g>
		<path d="m449.82764 63.308677c0.93806 3.51695 7.28221 7.17944 12.54256 6.37409-2.53593-3.30357-10.00663-5.22534-12.54256-6.37409z" enable-background="new" fill="#fff" filter="url(#filter3934-8-1-9)" transform="matrix(-.13639274 .38519761 -.38519761 -.13639274 240.38971 -15.418534)"/>
		<rect color="#000000" fill="#232426" height="7.1335907" ry="3.5667953" width="69.751083" x="189.34445" y="148.58174"/>
		<circle color="#000000" cx="224.22" cy="123.99387" fill="#2c2c2c" r="4.8722501"/>
	</g>
	<g transform="translate(0,-92.948966)">
		<rect height="686.30676" stroke="#323331" stroke-linejoin="round" stroke-width="2" width="387.80417" x="30.317919" y="203.32111"/>
		<rect fill="#5425E9" height="60" width="387.80417" x="30.317919" y="203.32111"/>
		<g transform="translate(0,204)">
			<text fill="#FFFFFF" font-size="18" font-style="EuphemiaUCAS,EuphemiaUCAS-Bold,EuphemiaUCAS-Italic" text-anchor="middle" x="224.22" y="20">4:22 AM</text>
			<g transform="translate(410,0)">
				<path d="M15.67,4H14V2h-4v2H8.33C7.6,4 7,4.6 7,5.33v15.33C7,21.4 7.6,22 8.33,22h7.33c0.74,0 1.34,-0.6 1.34,-1.33V5.33C17,4.6 16.4,4 15.67,4z" fill="white" text-anchor="end" transform="rotate(90)"/>
			</g>
		</g>
		<text fill="#FFFFFF" font-size="18" font-style="EuphemiaUCAS,EuphemiaUCAS-Bold,EuphemiaUCAS-Italic" text-anchor="end" x="400" y="254">Recargar</text>
		<rect fill="#FFFFFF" height="626.30676" width="387.80417" x="30.317919" y="263.32111"/>
		<g transform="translate(0,0)">
			<g transform="translate(13,244) scale(0.09)">
				<path d="m394.835938 249.984375-109.664063 63.316406v126.628907l109.664063 63.316406 109.664062-63.316406v-126.628907zm33.5 126.632813c0 18.5-15 33.5-33.5 33.5-18.503907 0-33.5-15-33.5-33.5s14.996093-33.5 33.5-33.5c18.5 0 33.5 14.996093 33.5 33.5zm0 0" fill="#e0e0e2"/>
				<path d="m424.835938 318.984375c-22.660157 0-42.261719 13.074219-51.679688 32.089844 5.84375-4.960938 13.410156-7.957031 21.679688-7.957031 5.390624 0 10.484374 1.273437 15 3.539062 4.511718-2.265625 9.605468-3.539062 15-3.539062 18.5 0 33.496093 15 33.496093 33.5s-14.996093 33.5-33.496093 33.5c-5.394532 0-10.488282-1.277344-15-3.539063-4.515626 2.265625-9.609376 3.539063-15 3.539063-8.269532 0-15.835938-2.996094-21.679688-7.960938 9.417969 19.015625 29.019531 32.089844 51.679688 32.089844 31.828124 0 57.628906-25.800782 57.628906-57.628906 0-31.832032-25.800782-57.632813-57.628906-57.632813zm0 0" fill="#acabb1"/>
				<path d="m394.835938 318.984375c-31.828126 0-57.632813 25.800781-57.632813 57.632813 0 31.828124 25.804687 57.628906 57.632813 57.628906 31.828124 0 57.628906-25.800782 57.628906-57.628906 0-31.832032-25.800782-57.632813-57.628906-57.632813zm0 91.132813c-18.503907 0-33.5-15-33.5-33.5s14.996093-33.5 33.5-33.5c18.5 0 33.5 15 33.5 33.5s-15 33.5-33.5 33.5zm0 0" fill="#c6c5ca"/>
				<path d="m315.171875 439.929688v-126.628907l94.664063-54.65625-15-8.660156-109.664063 63.316406v126.628907l109.664063 63.316406 15-8.660156zm0 0" fill="#acabb1"/>
				<path d="m373.15625 402.15625c-7.230469-6.144531-11.820312-15.304688-11.820312-25.539062 0-10.234376 4.589843-19.394532 11.820312-25.542969 7.261719-14.660157 20.578125-25.789063 36.679688-30.117188-4.785157-1.285156-9.8125-1.972656-15-1.972656-31.828126 0-57.632813 25.800781-57.632813 57.632813 0 31.828124 25.804687 57.628906 57.632813 57.628906 5.1875 0 10.214843-.6875 15-1.972656-16.101563-4.324219-29.417969-15.457032-36.679688-30.117188zm0 0" fill="#787680"/>
				<path d="m394.835938 241.324219-117.164063 67.644531v135.292969l117.164063 67.644531 117.164062-67.644531v-135.292969zm102.164062 194.277343-102.164062 58.984376-94.667969-54.65625 27.632812-15.953126-7.5-12.988281-27.632812 15.953125v-109.3125l102.167969-58.984375 102.164062 58.984375zm0 0"/>
				<path d="m394.835938 417.617188c22.605468 0 41-18.394532 41-41 0-22.605469-18.394532-41-41-41-22.609376 0-41 18.394531-41 41 0 22.605468 18.390624 41 41 41zm0-67c14.335937 0 26 11.664062 26 26 0 14.335937-11.664063 26-26 26-14.335938 0-26-11.664063-26-26 0-14.335938 11.664062-26 26-26zm0 0"/>
				<path d="m357.859375 322.992188 8.523437 12.34375c8.382813-5.792969 18.21875-8.851563 28.453126-8.851563 27.640624 0 50.128906 22.488281 50.128906 50.132813 0 27.640624-22.488282 50.128906-50.128906 50.128906-27.644532 0-50.132813-22.488282-50.132813-50.128906 0-10.503907 3.210937-20.558594 9.289063-29.078126l-12.210938-8.710937c-7.902344 11.074219-12.078125 24.140625-12.078125 37.789063 0 35.910156 29.21875 65.128906 65.132813 65.128906 35.914062 0 65.128906-29.21875 65.128906-65.128906 0-35.914063-29.214844-65.132813-65.128906-65.132813-13.292969 0-26.078126 3.980469-36.976563 11.507813zm0 0"/>
				<g fill="#fff">
					<path d="m413.121094 472.480469-7.5-12.988281 66.378906-38.324219v-23.4375h15v32.097656zm73.878906-84.746094h-15v-15h15zm0-25h-15v-15h15zm0 0"/>
				</g>
			</g>
			<text fill="#000000" font-size="18" font-style="EuphemiaUCAS,EuphemiaUCAS-Bold,EuphemiaUCAS-Italic" x="70.317919" y="285">Tuerca</text>
			<text fill="#000000" font-size="18" font-style="EuphemiaUCAS,EuphemiaUCAS-Bold,EuphemiaUCAS-Italic" text-anchor="end" x="410.122089" y="285">12</text>
		</g>
		<line stroke="gainsboro" x1="30.317919" x2="418.122089" y1="293" y2="293"/>
		<g>
			<g transform="translate(42,295) scale(0.06)">
				<path d="m136.199219 306.230469v-15.125l-80 26.664062v15.125zm0 0"/>
				<path d="m32.199219 180.902344 128-42.671875v-15.132813l-128 42.671875zm0 0"/>
				<path d="m160.199219 251.097656-128 42.671875v15.132813l128-42.671875zm0 0"/>
				<path d="m136.199219 397.039062v-41.933593l-80 26.664062v15.269531l32 37.359376v-34.398438c0-4.417969 3.582031-8 8-8s8 3.582031 8 8v34.398438zm0 0"/>
				<path d="m160.199219 315.097656-128 42.671875v15.132813l128-42.671875zm0 0"/>
				<path d="m56.199219 189.769531v15.125l80-26.664062v-15.132813zm0 0"/>
				<path d="m192.199219 0h-192v20.992188l51.632812 59.007812h88.734375l51.632813-59.007812zm0 0"/>
				<path d="m56.199219 96v44.902344l80-26.671875v-18.230469zm0 0"/>
				<path d="m136.199219 242.230469v-15.125l-80 26.664062v15.125zm0 0"/>
				<path d="m160.199219 187.097656-128 42.671875v15.132813l128-42.671875zm0 0"/>
			</g>
			<text fill="#000000" font-size="18" font-style="EuphemiaUCAS,EuphemiaUCAS-Bold,EuphemiaUCAS-Italic" x="70.317919" y="315">Tornillo</text>
			<text fill="#000000" font-size="18" font-style="EuphemiaUCAS,EuphemiaUCAS-Bold,EuphemiaUCAS-Italic" text-anchor="end" x="410.122089" y="315">10</text>
		</g>
		<line stroke="gainsboro" x1="30.317919" x2="418.122089" y1="323" y2="323"/>
		<g>
			<g transform="translate(38,325) scale(0.05)">
				<path d="m302.742188 245-68.074219-68.074219-218.539063 218.535157c-10.089844 10.09375-15.789062 23.425781-16.1093748 38.808593-.3828122 17.941407 8.0859378 35.753907 22.7656248 46.035157 24.554688 17.195312 55.230469 11.882812 72.980469-7.636719zm0 0" fill="#455a64"/>
				<path d="m508.886719 195.121094-42.667969-42.667969c-2.003906-1.984375-4.714844-3.113281-7.550781-3.113281h-10.667969v-10.667969c0-2.835937-1.128906-5.546875-3.113281-7.550781l-85.335938-85.332032c-17.128906-17.109374-45.78125-45.7812495-103.550781-45.7812495-57.726562 0-84.203125 26.4726565-103.550781 45.7812495-3.03125 3.070313-3.949219 7.636719-2.304688 11.625 1.640625 3.988282 5.546875 6.59375 9.855469 6.59375 86.039062 0 96 36.523438 96 64 0 33.214844-27.625 55.378907-27.925781 55.59375-2.367188 1.898438-3.859375 4.734376-4.03125 7.765626-.191407 3.050781.9375 6.015624 3.09375 8.171874l53.332031 53.332032c3.734375 3.734375 9.644531 4.179687 13.929688 1.003906 29.015624-21.742188 57.921874-34.882812 68.269531-34.113281v14.910156c0 2.839844 1.128906 5.546875 3.113281 7.554687l53.332031 53.332032c2.007813 1.984375 4.714844 3.113281 7.554688 3.113281h.363281c2.964844-.082031 5.738281-1.40625 7.65625-3.625l74.667969-85.332031c3.710937-4.246094 3.496093-10.605469-.46875-14.59375zm0 0" fill="#cfd8dc"/>
				<path d="m426.667969 298.671875c-2.839844 0-5.546875-1.128906-7.554688-3.113281l-53.332031-53.332032c-1.984375-2.007812-3.113281-4.714843-3.113281-7.554687v-14.890625c-10.347657-.765625-39.253907 12.375-68.269531 34.113281-4.285157 3.179688-10.21875 2.730469-13.929688-1.003906l-53.332031-53.332031c-2.15625-2.15625-3.265625-5.140625-3.09375-8.171875.171875-3.050781 1.664062-5.867188 4.03125-7.765625.300781-.234375 27.925781-22.398438 27.925781-55.613282 0-27.476562-9.960938-64-96-64-4.308594 0-8.214844-2.605468-9.855469-6.59375-1.644531-3.988281-.726562-8.554687 2.304688-11.625 19.347656-19.308593 45.824219-45.7812495 103.550781-45.7812495 57.769531 0 86.421875 28.6718755 103.550781 45.7812495l85.335938 85.332032c1.984375 2.003906 3.113281 4.714844 3.113281 7.550781v10.667969h10.667969c2.835937 0 5.546875 1.128906 7.550781 3.113281l42.667969 42.667969c3.988281 3.96875 4.179687 10.347656.46875 14.570312l-74.667969 85.332032c-1.941406 2.21875-4.714844 3.542968-7.65625 3.628906-.128906.019531-.238281.019531-.363281.019531zm-42.667969-68.414063 42.15625 42.152344 60.585938-69.246094-32.492188-32.492187h-16.917969c-5.886719 0-10.664062-4.777344-10.664062-10.664063v-16.917968l-82.21875-82.21875c-15.746094-15.746094-39.511719-39.53125-88.449219-39.53125-33.960938 0-54.464844 10.132812-70.039062 22.527344 60.671874 5.972656 91.371093 34.199218 91.371093 84.140624 0 30.378907-16.640625 52.882813-27.347656 64.234376l39.125 39.101562c25.34375-17.941406 71.617187-45.695312 91.777344-25.554688 1.984375 2.003907 3.113281 4.714844 3.113281 7.550782zm0 0"/>
				<path d="m55.039062 490.671875c-30.355468 0-55.039062-24.679687-55.039062-55.039063 0-15.957031 5.738281-29.78125 16.128906-40.171874l211.007813-210.984376c4.160156-4.160156 10.921875-4.160156 15.082031 0l53.332031 53.332032c4.011719 4.011718 4.183594 10.496094.363281 14.722656l-200.148437 220.136719c-10.410156 11.433593-25.257813 18.003906-40.726563 18.003906zm179.628907-283.582031-203.457031 203.457031c-6.378907 6.355469-9.878907 14.824219-9.878907 23.828125 0 19.839844 15.125 34.964844 33.707031 34.964844 9.472657 0 18.5625-4.011719 24.941407-11.027344l193.300781-212.609375zm0 0"/>
			</g>
			<text fill="#000000" font-size="18" font-style="EuphemiaUCAS,EuphemiaUCAS-Bold,EuphemiaUCAS-Italic" x="70.317919" y="345">Martillo</text>
			<text fill="#000000" font-size="18" font-style="EuphemiaUCAS,EuphemiaUCAS-Bold,EuphemiaUCAS-Italic" text-anchor="end" x="410.122089" y="345">130</text>
		</g>
		<line stroke="gainsboro" x1="30.317919" x2="418.122089" y1="353" y2="353"/>
		<line stroke="gainsboro" x1="30.317919" x2="418.122089" y1="383" y2="383"/>
		<line stroke="gainsboro" x1="30.317919" x2="418.122089" y1="413" y2="413"/>
		<line stroke="gainsboro" x1="30.317919" x2="418.122089" y1="443" y2="443"/>
		<line stroke="gainsboro" x1="30.317919" x2="418.122089" y1="473" y2="473"/>
		<line stroke="gainsboro" x1="30.317919" x2="418.122089" y1="503" y2="503"/>
		<line stroke="gainsboro" x1="30.317919" x2="418.122089" y1="533" y2="533"/>
		<line stroke="gainsboro" x1="30.317919" x2="418.122089" y1="563" y2="563"/>
		<line stroke="gainsboro" x1="30.317919" x2="418.122089" y1="593" y2="593"/>
		<line stroke="gainsboro" x1="30.317919" x2="418.122089" y1="623" y2="623"/>
		<line stroke="gainsboro" x1="30.317919" x2="418.122089" y1="653" y2="653"/>
		<line stroke="gainsboro" x1="30.317919" x2="418.122089" y1="683" y2="683"/>
		<line stroke="gainsboro" x1="30.317919" x2="418.122089" y1="713" y2="713"/>
		<line stroke="gainsboro" x1="30.317919" x2="418.122089" y1="743" y2="743"/>
		<line stroke="gainsboro" x1="30.317919" x2="418.122089" y1="773" y2="773"/>
		<line stroke="gainsboro" x1="30.317919" x2="418.122089" y1="803" y2="803"/>
		<line stroke="gainsboro" x1="30.317919" x2="418.122089" y1="833" y2="833"/>
		<line stroke="gainsboro" x1="30.317919" x2="418.122089" y1="863" y2="863"/>
	</g>
</svg>